<?xml version="1.0" standalone="no"?>
<!DOCTYPE svg PUBLIC "-//W3C//DTD SVG 20010904//EN"
 "http://www.w3.org/TR/2001/REC-SVG-20010904/DTD/svg10.dtd">
<svg version="1.0" xmlns="http://www.w3.org/2000/svg"
 width="520.000000pt" height="520.000000pt" viewBox="0 0 520.000000 520.000000"
 preserveAspectRatio="xMidYMid meet">
<metadata>
Created by potrace 1.11, written by Peter Selinger 2001-2013
</metadata>
<g transform="translate(0.000000,520.000000) scale(0.100000,-0.100000)"
fill="#000000" stroke="none">
<path d="M787 5013 c-3 -5 -10 -35 -17 -68 -28 -142 -85 -322 -127 -402 -39
-75 -61 -102 -90 -114 -32 -12 -29 -21 20 -56 23 -16 83 -61 132 -100 119 -91
114 -89 131 -64 18 25 85 61 114 61 29 0 101 75 130 135 13 28 24 52 25 55 0
3 13 41 27 85 34 102 55 180 62 229 4 21 9 48 11 60 5 18 -3 24 -57 45 -35 13
-76 29 -93 36 -53 24 -254 105 -259 105 -3 0 -7 -3 -9 -7z"/>
<path d="M2056 4822 c-2 -2 -20 -5 -41 -8 -59 -7 -115 -41 -162 -97 -38 -46
-43 -158 -13 -272 34 -128 78 -210 115 -216 31 -5 112 27 209 81 49 28 94 50
100 50 6 0 -8 13 -31 28 -113 75 -145 132 -124 218 14 54 69 175 85 186 21 14
-10 28 -72 31 -34 2 -64 2 -66 -1z"/>
<path d="M4226 4344 c-55 -40 -103 -79 -107 -85 -4 -7 -3 -24 3 -38 5 -14 10
-28 10 -31 2 -17 22 -57 48 -95 40 -59 175 -195 192 -195 20 0 114 58 185 115
l62 49 -49 13 c-136 35 -222 154 -235 325 -1 19 -18 10 -109 -58z"/>
<path d="M2815 4055 c-5 -2 -22 -6 -37 -9 -28 -6 -78 -52 -78 -72 0 -7 -41
-10 -122 -10 -68 0 -148 -3 -178 -8 -77 -10 -237 -53 -286 -76 -23 -10 -53
-22 -67 -26 -15 -3 -31 -12 -38 -20 -6 -8 -17 -14 -23 -14 -7 0 -55 -28 -106
-62 -94 -62 -264 -220 -309 -289 l-24 -35 -36 18 c-19 10 -40 18 -46 18 -6 0
-19 16 -30 36 -25 46 -107 130 -182 186 -32 23 -60 46 -63 49 -10 13 -178 119
-188 119 -6 0 -12 -4 -14 -9 -2 -5 -49 -58 -104 -118 -138 -147 -183 -197
-184 -203 0 -3 35 -27 78 -55 42 -27 79 -52 82 -55 3 -3 21 -17 40 -30 48 -34
68 -50 166 -134 7 -7 2 -30 -18 -78 -77 -183 -107 -458 -84 -763 6 -76 9 -109
22 -200 40 -282 112 -478 217 -590 l52 -54 -55 -20 c-55 -20 -173 -50 -220
-56 -142 -18 -326 -25 -378 -14 -17 4 -34 3 -37 -1 -3 -5 19 -57 49 -117 72
-144 108 -239 111 -288 1 -33 7 -42 31 -54 44 -22 272 -19 399 5 35 6 38 5 30
-12 -4 -10 -9 -74 -11 -142 l-4 -123 64 -29 c69 -32 241 -99 267 -105 9 -2 39
-11 65 -20 70 -24 266 -74 354 -90 41 -8 89 -17 105 -20 29 -5 54 -9 140 -20
22 -3 58 -8 80 -11 97 -13 362 -27 390 -20 11 3 25 18 32 33 38 88 41 116 40
293 -1 174 0 178 27 234 44 89 95 128 326 249 58 31 150 80 205 110 l99 55 65
-60 c80 -75 174 -137 294 -193 107 -50 261 -103 349 -120 10 -2 23 -7 28 -10
10 -6 90 71 90 87 0 4 8 15 18 25 22 22 162 207 162 214 0 3 -6 6 -14 6 -94 0
-343 127 -483 246 -14 12 -41 36 -61 53 l-35 31 43 39 c152 136 236 246 293
381 29 72 32 87 32 193 0 134 -21 209 -84 307 -68 106 -142 148 -217 125 l-34
-10 -1 41 c0 23 -2 58 -5 77 -2 19 -4 44 -4 55 -1 34 -51 225 -70 270 -36 84
-43 80 115 81 77 1 143 2 147 3 4 0 -4 18 -18 38 -22 34 -58 133 -68 193 -2
14 -7 36 -10 50 -8 34 -25 179 -31 265 -1 17 -3 37 -4 45 -1 10 -12 15 -34 16
-59 2 -112 12 -165 32 -28 11 -53 19 -53 19 -2 -2 -7 -79 -9 -132 -4 -97 27
-376 45 -404 3 -5 2 -12 -3 -15 -4 -2 -13 7 -20 22 -28 62 -163 220 -259 301
-48 41 -183 130 -239 156 -29 14 -55 29 -58 34 -10 16 74 48 125 46 56 -1 60
6 22 32 -60 40 -115 59 -238 80 -29 5 -90 17 -130 26 -11 2 -24 3 -30 2z"/>
<path d="M4660 3493 c-36 -49 -232 -250 -285 -293 -95 -77 -258 -170 -299
-170 -25 0 -24 -24 4 -110 27 -84 122 -303 141 -326 14 -17 52 -9 125 25 65
30 188 111 234 153 14 13 39 34 55 47 47 36 171 148 257 232 l78 77 -26 63
c-14 35 -29 69 -34 74 -4 6 -12 25 -19 44 -15 45 -92 170 -123 198 -13 12 -34
24 -48 27 -21 5 -31 -1 -60 -41z"/>
</g>
</svg>
